<svg xmlns="http://www.w3.org/2000/svg" width="71.547" height="77.482" viewBox="0 0 71.547 77.482"><g transform="translate(-5 -1)"><path d="M56.49,18.359V34.493a5,5,0,0,0-5-5,7.5,7.5,0,0,0-7.5-7.5H32.746A18.661,18.661,0,0,1,21.5,18.246a19.085,19.085,0,0,1-2-1.75A18.662,18.662,0,0,1,14,3.25s1.4.562,2.874,1.15A18.925,18.925,0,0,0,23.9,5.749h.087a18.187,18.187,0,0,0,7.223-1.487c.712-.3,1.462-.625,2.162-.925A16.751,16.751,0,0,1,39.944,2h.187A16.358,16.358,0,0,1,56.49,18.359Z" transform="translate(4.075 0.25)" fill="#060606"/><path d="M21,16.129V27.376a4.992,4.992,0,0,0-5,5V10.48a18.621,18.621,0,0,0,3,3.9,19.086,19.086,0,0,0,2,1.75Z" transform="translate(3.641 2.367)" fill="#060606"/><path d="M33.31,49.15l6.811,5.961a7.24,7.24,0,0,1-2.6,2.175l-1.75.875Z" transform="translate(9.438 12.024)" fill="#aab2bd"/><path d="M25.28,55.169l6.748-6-2.449,8.985-1.75-.875a7.145,7.145,0,0,1-2.549-2.112Z" transform="translate(6.759 12.029)" fill="#aab2bd"/><path d="M47.333,56.237A6.953,6.953,0,0,0,49.04,51.7V44.64l11.013,4.087V66.335H16V48.727L27.013,44.64V51.7a6.953,6.953,0,0,0,1.762,4.6,7.749,7.749,0,0,0,2.808,2.112l1.927.875,4.515,2.05,4.515-2.05,1.927-.875a7.841,7.841,0,0,0,2.863-2.175Z" transform="translate(2.747 10.898)" fill="#fff"/><path d="M42,45.055v7.061a7.377,7.377,0,0,1-1.55,4.536l-6.811-5.961L32,49.254l6.274-6.274a5.073,5.073,0,0,0,1.837,1.3Z" transform="translate(9.127 10.483)" fill="#e6e9ed"/><path d="M34.456,49.437l2.462,9.01-4.1,2.05-4.1-2.05,2.449-8.985L32.819,48Z" transform="translate(7.954 11.737)" fill="#ff826e"/><path d="M34,49.254l-1.65,1.462-6.748,6a7.369,7.369,0,0,1-1.6-4.6V45.055l1.887-.775a5.073,5.073,0,0,0,1.837-1.3Z" transform="translate(6.422 10.483)" fill="#e6e9ed"/><path d="M18.5,47.91V65.519H6A18.62,18.62,0,0,1,17.572,48.285Z" transform="translate(0.25 11.714)" fill="#fff"/><path d="M60.5,65.519H48V47.91l.925.375A18.637,18.637,0,0,1,60.5,65.518Z" transform="translate(14.8 11.714)" fill="#fff"/><g transform="translate(20.778 18.496)"><path d="M38.252,40.62a5.016,5.016,0,0,0,1.275,3.337L33.254,50.23,26.98,43.956a5.016,5.016,0,0,0,1.275-3.337V39.07a21.992,21.992,0,0,0,5,2.412,21.992,21.992,0,0,0,5-2.412Z" transform="translate(-13.258 -8.989)" fill="#e2a46e"/><path d="M44.44,24a5,5,0,1,1,0,10h-2.2a21.777,21.777,0,0,0,2.2-9.56Z" transform="translate(-9.447 -12.753)" fill="#e2a46e"/><path d="M47.794,36.245A21.973,21.973,0,0,1,35,47.493,21.96,21.96,0,0,1,20,26.685V15a18.661,18.661,0,0,0,11.247,3.749H42.495a7.5,7.5,0,0,1,7.5,7.5v.437A21.777,21.777,0,0,1,47.794,36.245Z" transform="translate(-15.001 -15)" fill="#e2a46e"/><path d="M23.2,34H21a5,5,0,1,1,0-10v.437A21.777,21.777,0,0,0,23.2,34Z" transform="translate(-16 -12.753)" fill="#e2a46e"/></g><circle cx="1.25" cy="1.25" r="1.25" transform="translate(31.557 27.244)"/><circle cx="1.25" cy="1.25" r="1.25" transform="translate(47.491 27.244)"/><path d="M38,32H35.5a2.5,2.5,0,0,1-5,0H28a5,5,0,0,0,10,0Z" transform="translate(7.775 7.741)"/><path d="M44.5,15.519l2.272-1.042A16.3,16.3,0,0,0,32,5V7.5A13.793,13.793,0,0,1,44.5,15.519Z" transform="translate(9.343 0.999)"/><path d="M63.46,58.848,49.868,53.6a3.74,3.74,0,0,1-2.47-3.47v-.9a23.636,23.636,0,0,0,7.76-8.243h1.514A6.452,6.452,0,0,0,63.3,34.742V18.607a16.989,16.989,0,0,0-5.472-12.45A19.13,19.13,0,0,0,44.624,1h-.195a19.886,19.886,0,0,0-7.494,1.443l-2.291.926a19.074,19.074,0,0,1-7.228,1.38,19.615,19.615,0,0,1-6.952-1.26L15.6,1.654V3.5a18.966,18.966,0,0,0,2.65,9.612V34.742a6.452,6.452,0,0,0,6.625,6.249h1.514a23.636,23.636,0,0,0,7.76,8.243v.9a3.741,3.741,0,0,1-2.47,3.47L18.086,58.847A19.826,19.826,0,0,0,5,77.233v1.25H76.547v-1.25A19.823,19.823,0,0,0,63.46,58.848ZM20.9,60.463l7.95-3.068V62.6a8.664,8.664,0,0,0,5.126,7.824l6.8,3.206,6.8-3.206A8.664,8.664,0,0,0,52.7,62.6V57.395l7.95,3.068v15.52H20.9ZM46.386,68.19l-.413.195-1.024-3.542,2.908,2.4A6.705,6.705,0,0,1,46.386,68.19ZM41.34,61.865l2.215,7.66-2.782,1.312-2.782-1.312L40.2,61.891l.582-.487Zm-5.766,6.52-.413-.195a6.663,6.663,0,0,1-1.4-.9l2.817-2.362Zm13.289-12.47,1.184.456V62.6a5.949,5.949,0,0,1-.613,2.624l-6.723-5.55,4.772-4.5A6.656,6.656,0,0,0,48.863,55.915Zm7.809-17.424h-.319a22,22,0,0,0,1.6-7.281,3.767,3.767,0,0,1,2.694,3.532A3.872,3.872,0,0,1,56.673,38.491ZM19.48,5.81a22.536,22.536,0,0,0,8.036,1.438A21.681,21.681,0,0,0,35.69,5.665l2.289-.926a17.129,17.129,0,0,1,6.45-1.24h.195A16.429,16.429,0,0,1,55.955,7.925a14.586,14.586,0,0,1,4.694,10.683V29.776a6.746,6.746,0,0,0-2.737-1.163A9.114,9.114,0,0,0,48.723,21H36.8C27.246,21,19.357,14.15,18.357,5.387ZM23.549,19.1V28.62a6.766,6.766,0,0,0-2.65,1.155V16.668a20.745,20.745,0,0,0,2.65,2.429Zm1.325,19.394A3.872,3.872,0,0,1,20.9,34.742a3.765,3.765,0,0,1,2.694-3.529,22.03,22.03,0,0,0,1.6,7.278ZM26.2,30.182V20.81a22.037,22.037,0,0,0,10.6,2.684H48.723a6.452,6.452,0,0,1,6.625,6.249v.439c0,8.777-5.838,16.555-14.574,19.484C32.037,46.737,26.2,38.959,26.2,30.182ZM40.355,52.175l.419.131.419-.131a25.446,25.446,0,0,0,3.6-1.441,5.974,5.974,0,0,0,.9,2.594l-4.92,4.641-4.921-4.641a5.974,5.974,0,0,0,.9-2.594A25.611,25.611,0,0,0,40.355,52.175Zm-7.671,3.74a6.768,6.768,0,0,0,1.379-.741l4.78,4.509-6.692,5.611A5.945,5.945,0,0,1,31.5,62.6V56.372Zm-14.434,5.6V75.983H7.7A17.331,17.331,0,0,1,18.249,61.518ZM63.3,75.983V61.519A17.329,17.329,0,0,1,73.851,75.983Z"/></g></svg>