<svg xmlns="http://www.w3.org/2000/svg" width="70.615" height="70.615" viewBox="0 0 70.615 70.615"><g transform="translate(0 -1.55)"><g transform="translate(0 1.55)"><path d="M70.475,21.145C69.144,6.7,59.674,1.55,51.255,1.55A25.341,25.341,0,0,0,35.309,7.44,25.328,25.328,0,0,0,19.369,1.55C10.952,1.55,1.479,6.7.141,21.143-2.487,49.5,32.676,70.609,34.173,71.5l1.134.667,1.134-.667C37.94,70.607,73.1,49.5,70.475,21.145ZM35.307,65.962C29.435,62.183,2.932,43.822,4.98,21.707,6.209,8.429,15.451,7,19.369,7a20.931,20.931,0,0,1,14.315,5.985l1.625,1.635,1.625-1.635A20.955,20.955,0,0,1,51.255,7c3.915,0,13.157,1.43,14.381,14.708C67.68,43.792,41.173,62.181,35.307,65.962Z" transform="translate(0 -1.55)" fill="#fff"/><path d="M16.372,18.274a3.977,3.977,0,0,0-4.084,4.18,3.975,3.975,0,0,0,4.084,4.175A3.988,3.988,0,0,0,20.5,22.454,3.992,3.992,0,0,0,16.372,18.274Z" transform="translate(17.691 28.171)" fill="#fff"/><path d="M18.721,8.385a15.741,15.741,0,0,0-7.665,1.882l1.56,5.005A8.65,8.65,0,0,1,17.158,13.9c2.295.091,3.352,1.145,3.352,2.753,0,1.56-1.193,3.03-2.662,4.774a10.125,10.125,0,0,0-2.708,7.2l.048,1.193h6.1v-.825a7.872,7.872,0,0,1,2.34-5.735c1.741-1.928,3.9-4.225,3.9-7.71C27.536,11.737,24.78,8.385,18.721,8.385Z" transform="translate(16.01 11.463)" fill="#fff"/></g></g></svg>