<svg xmlns="http://www.w3.org/2000/svg" width="76" height="76" viewBox="0 0 76 76"><ellipse cx="38" cy="36.376" rx="38" ry="36.376" transform="translate(0 3.247)" fill="#1a2b63"/><path d="M207.922,340.784a5.455,5.455,0,0,1,4.6,2.512.147.147,0,0,0,.113.067h.011a.147.147,0,0,0,.111-.05A7.99,7.99,0,0,1,221,340.932l-2.634-6.752h-9.32l-2.663,6.825A5.447,5.447,0,0,1,207.922,340.784Z" transform="translate(-175.71 -284.536)" fill="#d9eafc"/><g transform="translate(27.623 49.755)"><path d="M210.264,334.179h-1.215L206.386,341a5.466,5.466,0,0,1,1.3-.213Z" transform="translate(-203.323 -334.179)" fill="#aec1ed"/><path d="M187.4,384.031a.148.148,0,0,0,.146.126l.023,0a10.039,10.039,0,0,1,1.573-.126,9.914,9.914,0,0,1,6.779,2.67.148.148,0,0,0,.2,0,9.913,9.913,0,0,1,6.779-2.67,10.041,10.041,0,0,1,1.573.126l.023,0a.148.148,0,0,0,.146-.126,12.213,12.213,0,0,1,2-5.092,8.144,8.144,0,0,0-11.683.547,5.617,5.617,0,0,0-9.324-.187A12.208,12.208,0,0,1,187.4,384.031Z" transform="translate(-185.635 -370.451)" fill="#aec1ed"/></g><path d="M67.967,365.02a12.4,12.4,0,0,0-22.615-5,36.322,36.322,0,0,0,14.22,13.515A10.1,10.1,0,0,1,67.967,365.02Z" transform="translate(-40.282 -301.707)" fill="#445ea0"/><path d="M56.938,355.979a13.057,13.057,0,0,1,8.328,2.987,12.4,12.4,0,0,0-19.913,1.052q.44.739.914,1.454A13.1,13.1,0,0,1,56.938,355.979Z" transform="translate(-40.282 -301.809)" fill="#293d7c"/><path d="M325.692,354.454a12.406,12.406,0,0,0-12.268,10.566,10.1,10.1,0,0,1,8.4,8.513,36.324,36.324,0,0,0,14.22-13.515A12.39,12.39,0,0,0,325.692,354.454Z" transform="translate(-265.109 -301.707)" fill="#445ea0"/><g transform="translate(21.38 52.747)"><path d="M326.442,354.477c-.248-.015-.5-.023-.75-.023a12.406,12.406,0,0,0-12.268,10.566,10.022,10.022,0,0,1,1.354.315A14.012,14.012,0,0,1,326.442,354.477Z" transform="translate(-288.078 -354.454)" fill="#293d7c"/><path d="M165.443,425.177a10.059,10.059,0,0,0-6.88,2.71,10.094,10.094,0,0,0-16.871,5.933,36.2,36.2,0,0,0,33.742,0A10.1,10.1,0,0,0,165.443,425.177Z" transform="translate(-141.693 -414.739)" fill="#293d7c"/></g><path d="M153.794,426.432a10.5,10.5,0,0,1,3.938.762,10.091,10.091,0,0,0-16.039,6.626q.891.471,1.81.892A10.539,10.539,0,0,1,153.794,426.432Z" transform="translate(-121.142 -361.991)" fill="#1a2b63"/><g transform="translate(34.071 49.628)"><path d="M265.64,334.179h-2.231l.285,2.252a1.107,1.107,0,0,0,2.2-.278Z" transform="translate(-258.396 -334.179)" fill="#aec1ed"/><path d="M230.04,334.178l-.585,4.631a1.107,1.107,0,0,0,.96,1.237,1.123,1.123,0,0,0,.14.009,1.108,1.108,0,0,0,1.1-.968l.62-4.909H230.04Z" transform="translate(-229.446 -334.178)" fill="#aec1ed"/></g><path d="M145.218,174.951q0-1.805.13-3.6c-3.551,2-6,6.455-6,11.612a14.872,14.872,0,0,0,1.959,7.512.653.653,0,0,0,.811.275,14.367,14.367,0,0,1,5.349-1.057A48.167,48.167,0,0,1,145.218,174.951Z" transform="translate(-119.321 -145.869)" fill="#fe3745"/><path d="M141.024,182.967a13.9,13.9,0,0,1,4.252-10.353c.02-.421.043-.841.072-1.26-3.551,2-6,6.455-6,11.612a14.872,14.872,0,0,0,1.959,7.512.653.653,0,0,0,.811.275c.277-.113.559-.214.843-.31A14.879,14.879,0,0,1,141.024,182.967Z" transform="translate(-119.356 -145.869)" fill="#b7092b"/><g transform="translate(32.779 25.504)"><path d="M319.761,171.355q.127,1.788.13,3.6A48.165,48.165,0,0,1,317.64,189.7a14.366,14.366,0,0,1,5.349,1.057.653.653,0,0,0,.811-.275,14.87,14.87,0,0,0,1.959-7.512C325.759,177.81,323.312,173.355,319.761,171.355Z" transform="translate(-302.891 -171.355)" fill="#fe3745"/><path d="M217.708,307.125v3.4a.74.74,0,0,0,.738.738h9.827a.74.74,0,0,0,.738-.738v-3.4Z" transform="translate(-217.708 -287.086)" fill="#fe3745"/></g><path d="M220.218,310.528v-3.4h-2.51v3.4a.74.74,0,0,0,.738.738h2.51A.74.74,0,0,1,220.218,310.528Z" transform="translate(-185.574 -261.521)" fill="#b7092b"/><path d="M198.586,90.318H180.623a49.315,49.315,0,0,0,.212,31.717.653.653,0,0,0,.614.429H197.76a.653.653,0,0,0,.614-.429,49.315,49.315,0,0,0,.212-31.717Z" transform="translate(-151.604 -76.855)" fill="#eef6ff"/><path d="M182.927,122.035a49.315,49.315,0,0,1-.212-31.717h-2.092a49.315,49.315,0,0,0,.212,31.717.653.653,0,0,0,.614.429h2.092A.653.653,0,0,1,182.927,122.035Z" transform="translate(-152.088 -76.855)" fill="#d9eafc"/><path d="M227.179,90.318v2.449a.74.74,0,0,0,.738.738h7.032a.74.74,0,0,0,.738-.738V90.318Z" transform="translate(-193.433 -76.908)" fill="#ea2a3d"/><path d="M228.852,92.767V90.318h-1.673v2.449a.74.74,0,0,0,.738.738h1.673A.74.74,0,0,1,228.852,92.767Z" transform="translate(-193.593 -76.908)" fill="#b7092b"/><path d="M203.831,0a.652.652,0,0,0-.411.146,28.144,28.144,0,0,0-8.031,11.712c-.208.531-.4,1.073-.591,1.62h18.066c-.188-.547-.383-1.089-.591-1.62A28.143,28.143,0,0,0,204.242.146.652.652,0,0,0,203.831,0Z" transform="translate(-165.831 0)" fill="#fe3745"/><path d="M204.877.683q-.314-.277-.635-.538a.653.653,0,0,0-.822,0,28.144,28.144,0,0,0-8.031,11.712c-.208.531-.4,1.073-.591,1.62h2.092c.188-.547.383-1.089.591-1.62A28.824,28.824,0,0,1,204.877.683Z" transform="translate(-166.067)" fill="#b7092b"/><circle cx="7.53" cy="7.53" r="7.53" transform="translate(30.47 19.311)" fill="#445ea0"/><circle cx="4.831" cy="4.831" r="4.831" transform="translate(33.169 22.017)" fill="#69cdff"/><path d="M225.04,153.032a4.831,4.831,0,0,0,3.945,4.749,4.831,4.831,0,1,1,0-9.5A4.831,4.831,0,0,0,225.04,153.032Z" transform="translate(-190.209 -126.184)" fill="#52bbef"/><path d="M86.654,131.771a.419.419,0,0,1-.387-.258,5.043,5.043,0,0,0-3.421-3.421.419.419,0,0,1,0-.773,5.043,5.043,0,0,0,3.421-3.421.419.419,0,0,1,.773,0,5.044,5.044,0,0,0,3.421,3.421.419.419,0,0,1,0,.773,5.043,5.043,0,0,0-3.421,3.421.419.419,0,0,1-.387.258Z" transform="translate(-72.022 -105.274)" fill="#ffd00d"/><path d="M87.1,150.356a5.043,5.043,0,0,0-3.421-3.421.418.418,0,0,1-.218-.209c-.191.089-.395.179-.618.272a.419.419,0,0,0,0,.773,5.043,5.043,0,0,1,3.421,3.421.419.419,0,0,0,.773,0c.093-.224.182-.427.272-.618A.419.419,0,0,1,87.1,150.356Z" transform="translate(-72.022 -124.939)" fill="#ffaf10"/><path d="M390.828,160.122a.368.368,0,0,1-.34-.227,4.432,4.432,0,0,0-3.007-3.007.368.368,0,0,1,0-.68,4.433,4.433,0,0,0,3.007-3.007.368.368,0,0,1,.68,0,4.433,4.433,0,0,0,3.007,3.007.368.368,0,0,1,0,.68,4.432,4.432,0,0,0-3.007,3.007.368.368,0,0,1-.34.227Z" transform="translate(-328.042 -130.253)" fill="#fff"/><path d="M391.223,176.457a4.433,4.433,0,0,0-3.007-3.007.367.367,0,0,1-.192-.183c-.168.079-.347.157-.543.239a.368.368,0,0,0,0,.68,4.432,4.432,0,0,1,3.007,3.007.368.368,0,0,0,.68,0c.081-.2.16-.376.239-.543A.368.368,0,0,1,391.223,176.457Z" transform="translate(-328.723 -147.539)" fill="#d9eafc"/><path d="M361.418,47.969a.429.429,0,0,1-.4-.265,5.164,5.164,0,0,0-3.5-3.5.429.429,0,0,1,0-.792,5.165,5.165,0,0,0,3.5-3.5.429.429,0,0,1,.792,0,5.165,5.165,0,0,0,3.5,3.5.429.429,0,0,1,0,.792,5.165,5.165,0,0,0-3.5,3.5.429.429,0,0,1-.4.265Z" transform="translate(-303.211 -33.789)" fill="#ff9518"/><path d="M361.878,67a5.165,5.165,0,0,0-3.5-3.5.429.429,0,0,1-.224-.214c-.2.092-.4.184-.633.278a.429.429,0,0,0,0,.792,5.164,5.164,0,0,1,3.5,3.5.429.429,0,0,0,.792,0c.095-.229.187-.438.278-.633A.428.428,0,0,1,361.878,67Z" transform="translate(-303.362 -53.946)" fill="#ef8318"/></svg>